<svg width="174" height="165" viewBox="0 0 174 165" fill="none" xmlns="http://www.w3.org/2000/svg">
<path d="M173.939 79.5908C173.939 84.8949 171.832 89.9818 168.082 93.7324L103.363 158.45C99.6126 162.201 94.5259 164.309 89.2217 164.309H50.9971V126.006H101.362C117.931 126.006 131.362 112.574 131.362 96.0059V56.584L173.939 56.583V79.5908ZM122.942 38.3027H72.5771C56.009 38.303 42.5774 51.7345 42.5771 68.3027V107.725L0 107.726V84.7178C0.00010795 79.4137 2.10697 74.3268 5.85742 70.5762L70.5762 5.8584C74.3268 2.10774 79.4136 7.87881e-05 84.7178 0H122.942V38.3027Z" fill="url(#paint0_linear_2834_7736)"></path>
<defs>
<linearGradient id="paint0_linear_2834_7736" x1="50.0402" y1="-6.66016" x2="86.9697" y2="164.309" gradientUnits="userSpaceOnUse">
<stop stop-color="#CC45B6"></stop>
<stop offset="0.355769" stop-color="#CCADFF"></stop>
<stop offset="0.673077" stop-color="#DD95D7"></stop>
<stop offset="1" stop-color="#603FD9"></stop>
</linearGradient>
</defs>
</svg>