<svg width="536" height="165" viewBox="0 0 536 165" fill="none" xmlns="http://www.w3.org/2000/svg">
<path d="M173.939 79.5908C173.939 84.8949 171.832 89.9818 168.082 93.7324L103.363 158.45C99.6126 162.201 94.5259 164.309 89.2217 164.309H50.9971V126.006H101.362C117.931 126.006 131.362 112.574 131.362 96.0059V56.584L173.939 56.583V79.5908ZM122.942 38.3027H72.5771C56.009 38.303 42.5774 51.7345 42.5771 68.3027V107.725L0 107.726V84.7178C0.00010795 79.4137 2.10697 74.3268 5.85742 70.5762L70.5762 5.8584C74.3268 2.10774 79.4136 7.87881e-05 84.7178 0H122.942V38.3027Z" fill="url(#paint0_linear_2834_7737)"></path>
<path d="M492.854 92.5547H493.253L509.653 52.1543H526.653L500.953 112.154L496.053 123.754C494.386 127.687 492.453 130.721 490.253 132.854C488.053 135.054 484.686 136.154 480.153 136.154H466.453V122.854H479.653L484.354 111.654L458.453 52.1543H476.053L492.854 92.5547ZM535.418 113.59H518.383V95.707H535.418V113.59ZM238.938 29.9551C248.871 29.9551 256.871 32.1886 262.938 36.6553C269.004 41.1219 272.404 47.3555 273.138 55.3555H255.737C253.804 47.2221 247.904 43.1553 238.037 43.1553C233.571 43.1553 230.07 43.9547 227.537 45.5547C225.004 47.1547 223.737 49.4551 223.737 52.4551C223.737 57.0551 227.038 60.0221 233.638 61.3555L251.037 64.9551C258.904 66.555 264.637 69.2548 268.237 73.0547C271.904 76.788 273.737 81.855 273.737 88.2549C273.737 96.1882 270.837 102.355 265.037 106.755C259.304 111.155 251.137 113.355 240.537 113.355C229.671 113.355 221.004 110.988 214.537 106.255C208.071 101.455 204.538 94.8218 203.938 86.3555H221.338C221.938 90.7553 223.904 94.0889 227.237 96.3555C230.637 98.5554 235.304 99.6552 241.237 99.6553C246.504 99.6553 250.471 98.8219 253.138 97.1553C255.804 95.4219 257.138 92.888 257.138 89.5547C257.138 86.9549 256.27 84.8887 254.537 83.3555C252.871 81.8222 250.138 80.6555 246.338 79.8555L229.638 76.4551C222.104 74.8551 216.471 72.2214 212.737 68.5547C209.004 64.8214 207.138 59.9879 207.138 54.0547C207.138 46.5216 209.971 40.6221 215.638 36.3555C221.371 32.0888 229.137 29.9551 238.938 29.9551ZM310.615 50.9551C319.549 50.9551 326.349 52.9551 331.016 56.9551C335.749 60.9551 338.115 66.7884 338.115 74.4551V95.7549H345.916V112.155H329.115V102.355H324.916C322.849 105.822 320.082 108.522 316.615 110.455C313.149 112.322 308.815 113.255 303.615 113.255C296.549 113.255 291.016 111.555 287.016 108.155C283.016 104.689 281.016 100.155 281.016 94.5547C281.016 88.6216 283.083 84.0554 287.216 80.8555C291.349 77.6555 297.282 76.0547 305.016 76.0547H322.216V73.7549C322.216 67.2883 318.348 64.0547 310.615 64.0547C303.882 64.0548 299.816 66.3884 298.416 71.0547H281.916C283.249 64.4549 286.349 59.4546 291.216 56.0547C296.082 52.6549 302.549 50.9551 310.615 50.9551ZM371.334 85.4541C371.334 89.7874 372.435 93.0539 374.635 95.2539C376.901 97.3872 380.268 98.4541 384.734 98.4541C389.334 98.4541 392.867 97.2874 395.334 94.9541C397.867 92.6208 399.135 89.2874 399.135 84.9541V52.1543H415.734V95.7539H423.935V112.154H407.135V102.354H402.935C400.535 105.888 397.601 108.587 394.135 110.454C390.735 112.321 386.235 113.254 380.635 113.254C372.301 113.254 365.901 111.054 361.435 106.654C356.968 102.254 354.734 96.2543 354.734 88.6543V52.1543H371.334V85.4541ZM450.998 112.154H434.398V28.1543H450.998V112.154ZM305.815 87.0547C299.816 87.0547 296.816 89.2884 296.815 93.7549C296.815 95.9549 297.649 97.6555 299.315 98.8555C300.982 100.055 303.249 100.655 306.115 100.655C309.249 100.655 312.016 100.088 314.416 98.9551C316.816 97.8218 318.715 96.3216 320.115 94.4551C321.515 92.5217 322.216 90.3551 322.216 87.9551V87.0547H305.815Z" fill="black"></path>
<defs>
<linearGradient id="paint0_linear_2834_7737" x1="50.0402" y1="-6.66016" x2="86.9697" y2="164.309" gradientUnits="userSpaceOnUse">
<stop stop-color="#CC45B6"></stop>
<stop offset="0.355769" stop-color="#CCADFF"></stop>
<stop offset="0.673077" stop-color="#DD95D7"></stop>
<stop offset="1" stop-color="#603FD9"></stop>
</linearGradient>
</defs>
</svg>